<?xml version="1.0" encoding="UTF-8"?>
<svg xmlns="http://www.w3.org/2000/svg" version="1.1" viewBox="0 0 150 26.6" width="150" height="26.6">
  <defs>
    <style>
      .cls-1 {
        fill: #252422;
      }

      .cls-2 {
        fill: #ef6820;
      }
    </style>
  </defs>
  <!-- Generator: Adobe Illustrator 28.6.0, SVG Export Plug-In . SVG Version: 1.2.0 Build 709)  -->
  <g>
    <g id="Layer_1">
      <g>
        <polygon class="cls-2" points="26.6 11.7 26.6 0 0 0 0 11.7 4.4 11.7 4.4 4.5 10.9 4.5 10.9 11.7 10.9 14.9 10.9 22.1 4.4 22.1 4.4 14.9 0 14.9 0 26.6 26.6 26.6 26.6 14.9 22.2 14.9 22.2 22.1 15.7 22.1 15.7 14.9 15.7 11.7 15.7 4.5 22.2 4.5 22.2 11.7 26.6 11.7"/>
        <g>
          <path class="cls-1" d="M33.3,4.6h5.9l4.1,9.9h.2l4.1-9.9h5.9v17.5h-4.6v-10.1h-.1l-3.9,10h-2.8l-3.9-10h-.1v10.2h-4.6V4.6Z"/>
          <path class="cls-1" d="M60.5,4.6v17.5h-4.7V4.6h4.7Z"/>
          <path class="cls-1" d="M77.8,4.6v17.5h-4l-6.3-9.2h-.1v9.2h-4.7V4.6h4l6.2,9.2h.1V4.6h4.7Z"/>
          <path class="cls-1" d="M84.8,4.6v17.5h-4.7V4.6h4.7Z"/>
          <path class="cls-1" d="M91.5,22.1l-5.2-17.5h5.3l2.4,10.8h.1l2.8-10.8h4.2l2.8,10.8h.1l2.4-10.8h5.3l-5.2,17.5h-4.5l-3-9.8h-.1l-3,9.8h-4.5Z"/>
          <path class="cls-1" d="M113.4,4.6h5.9l4.1,9.9h.2l4.1-9.9h5.9v17.5h-4.6v-10.1h-.1l-3.9,10h-2.8l-3.9-10h-.1v10.2h-4.6V4.6Z"/>
          <path class="cls-1" d="M145.2,10.1c0-.6-.3-1-.6-1.3-.4-.3-1-.5-1.7-.5s-.9,0-1.2.2-.5.3-.7.5c-.1.2-.2.4-.2.7,0,.2,0,.4.1.6,0,.2.2.3.4.5.2.1.4.3.7.4.3.1.7.2,1.1.3l1.4.3c1,.2,1.8.5,2.5.8.7.3,1.3.7,1.7,1.2s.8,1,1,1.5.3,1.2.3,1.8c0,1.1-.3,2.1-.9,2.9-.6.8-1.4,1.4-2.4,1.8-1.1.4-2.3.6-3.8.6s-2.8-.2-4-.7c-1.1-.4-2-1.1-2.6-2.1-.6-.9-.9-2.1-.9-3.6h4.5c0,.5.2,1,.4,1.3.2.4.6.6,1,.8.4.2,1,.3,1.6.3s.9,0,1.3-.2c.3-.1.6-.3.8-.5.2-.2.3-.5.3-.8,0-.3,0-.5-.3-.7s-.4-.4-.8-.5c-.4-.2-.9-.3-1.5-.5l-1.7-.4c-1.5-.3-2.8-.9-3.7-1.7-.9-.8-1.3-1.9-1.3-3.2,0-1.1.3-2.1.9-2.9.6-.8,1.4-1.5,2.5-2,1.1-.5,2.3-.7,3.7-.7s2.6.2,3.7.7c1,.5,1.8,1.1,2.4,2,.6.9.8,1.9.8,3h-4.5Z"/>
        </g>
        <g>
          <path class="cls-1" d="M33.3,4.6h5.9l4.1,9.9h.2l4.1-9.9h5.9v17.5h-4.6v-10.1h-.1l-3.9,10h-2.8l-3.9-10h-.1v10.2h-4.6V4.6Z"/>
          <path class="cls-1" d="M60.4,4.6v17.5h-4.7V4.6h4.7Z"/>
          <path class="cls-1" d="M77.8,4.6v17.5h-4l-6.3-9.2h-.1v9.2h-4.7V4.6h4l6.2,9.1h.1V4.6h4.7Z"/>
          <path class="cls-1" d="M84.8,4.6v17.5h-4.7V4.6h4.7Z"/>
          <path class="cls-1" d="M91.5,22.1l-5.2-17.5h5.3l2.4,10.8h.1l2.8-10.8h4.2l2.8,10.8h.1l2.4-10.8h5.3l-5.2,17.5h-4.5l-3-9.8h-.1l-3,9.8h-4.5Z"/>
          <path class="cls-1" d="M113.3,4.6h5.9l4.1,9.9h.2l4.1-9.9h5.9v17.5h-4.6v-10.1h-.1l-3.9,10h-2.8l-3.9-10h-.1v10.2h-4.6V4.6Z"/>
          <path class="cls-1" d="M145.2,10.1c0-.6-.3-1-.6-1.3-.4-.3-1-.5-1.7-.5s-.9,0-1.2.2c-.3.1-.5.3-.7.5-.1.2-.2.4-.2.7,0,.2,0,.4.1.6,0,.2.2.3.4.5.2.1.4.3.7.4.3.1.7.2,1.1.3l1.4.3c1,.2,1.8.5,2.5.8.7.3,1.3.7,1.7,1.2.4.5.8,1,1,1.5.2.6.3,1.2.3,1.8,0,1.1-.3,2.1-.9,2.9-.6.8-1.4,1.4-2.4,1.8-1.1.4-2.3.6-3.8.6s-2.8-.2-4-.7c-1.1-.4-2-1.1-2.6-2.1-.6-.9-.9-2.1-.9-3.6h4.5c0,.5.2,1,.4,1.3.2.4.6.6,1,.8.4.2,1,.3,1.6.3s.9,0,1.3-.2c.3-.1.6-.3.8-.5.2-.2.3-.5.3-.8,0-.3,0-.5-.3-.7-.2-.2-.4-.4-.8-.5-.4-.2-.9-.3-1.5-.5l-1.7-.4c-1.5-.3-2.8-.9-3.7-1.7-.9-.8-1.3-1.9-1.3-3.2,0-1.1.3-2.1.9-2.9.6-.8,1.4-1.5,2.5-2,1.1-.5,2.3-.7,3.7-.7s2.6.2,3.7.7c1,.5,1.8,1.1,2.4,2,.6.9.8,1.9.8,3h-4.5Z"/>
        </g>
      </g>
    </g>
  </g>
</svg>