<?xml version="1.0" encoding="UTF-8"?>
<svg id="Layer_1" data-name="Layer 1" xmlns="http://www.w3.org/2000/svg" viewBox="0 0 263 44.85">
    <defs>
        <style>
            .cls-1 {
            fill: #f90;
            }

            .cls-1, .cls-2 {
            stroke-width: 0px;
            }

            .cls-2 {
            fill: #fff;
            }
        </style>
    </defs>
    <path class="cls-2" d="M2,.6h8.04c.81,0,1.54.49,1.85,1.24l11.51,28.08h.51L35.41,1.84c.31-.75,1.04-1.24,1.85-1.24h8.04c1.1,0,2,.9,2,2v39.64c0,1.1-.9,2-2,2h-4.95c-1.1,0-2-.9-2-2V15.83h-.36l-10.79,26.93c-.3.76-1.04,1.26-1.86,1.26h-3.39c-.82,0-1.55-.5-1.86-1.26L9.31,15.72h-.36v26.51c0,1.1-.9,2-2,2H2c-1.1,0-2-.9-2-2V2.6C0,1.49.9.6,2,.6Z"/>
    <path class="cls-2" d="M60.81,2.6v39.64c0,1.1-.9,2-2,2h-5.23c-1.1,0-2-.9-2-2V2.6c0-1.1.9-2,2-2h5.23c1.1,0,2,.9,2,2Z"/>
    <path class="cls-2" d="M101.62,2.6v39.64c0,1.1-.9,2-2,2h-4.92c-.66,0-1.27-.32-1.65-.86l-18.39-26.6h-.32v25.46c0,1.1-.9,2-2,2h-5.23c-1.1,0-2-.9-2-2V2.6c0-1.1.9-2,2-2h5.04c.66,0,1.28.32,1.65.87l18.24,26.57h.38V2.6c0-1.1.9-2,2-2h5.18c1.1,0,2,.9,2,2Z"/>
    <path class="cls-2" d="M115.15,2.6v39.64c0,1.1-.9,2-2,2h-5.23c-1.1,0-2-.9-2-2V2.6c0-1.1.9-2,2-2h5.23c1.1,0,2,.9,2,2Z"/>
    <path class="cls-1" d="M128.86,42.78L117.52,3.15c-.37-1.28.59-2.55,1.92-2.55h5.85c.93,0,1.73.64,1.95,1.54l6.86,28.78h.36l7.58-28.83c.23-.88,1.03-1.49,1.93-1.49h5.54c.91,0,1.7.61,1.93,1.49l7.56,28.89h.38l6.86-28.85c.21-.9,1.02-1.54,1.95-1.54h5.85c1.33,0,2.29,1.27,1.92,2.55l-11.34,39.64c-.25.86-1.03,1.45-1.92,1.45h-5.98c-.89,0-1.67-.59-1.92-1.44l-7.89-27.09h-.34l-7.87,27.09c-.25.85-1.03,1.44-1.92,1.44h-5.98c-.89,0-1.68-.59-1.92-1.45Z"/>
    <path class="cls-1" d="M180.31.6h8.04c.81,0,1.54.49,1.85,1.24l11.51,28.08h.51l11.51-28.08c.31-.75,1.04-1.24,1.85-1.24h8.04c1.1,0,2,.9,2,2v39.64c0,1.1-.9,2-2,2h-4.95c-1.1,0-2-.9-2-2V15.83h-.36l-10.79,26.93c-.3.76-1.04,1.26-1.86,1.26h-3.39c-.82,0-1.55-.5-1.86-1.26l-10.79-27.04h-.36v26.51c0,1.1-.9,2-2,2h-4.95c-1.1,0-2-.9-2-2V2.6c0-1.1.9-2,2-2Z"/>
    <path class="cls-1" d="M255.18,13.15c-.85,0-1.62-.53-1.88-1.34-.35-1.09-.99-1.98-1.92-2.67-1.29-.95-3.05-1.43-5.26-1.43-1.51,0-2.78.21-3.81.63-1.04.42-1.83,1-2.38,1.74-.55.74-.82,1.58-.82,2.51-.03.78.14,1.46.5,2.05.36.58.86,1.08,1.5,1.5.64.42,1.38.78,2.22,1.09.84.31,1.73.56,2.68.78l3.92.94c1.9.43,3.65.99,5.24,1.7s2.97,1.58,4.13,2.62c1.16,1.04,2.07,2.26,2.72,3.66.65,1.41.98,3.02.99,4.84-.01,2.67-.69,4.98-2.03,6.94-1.34,1.95-3.27,3.47-5.8,4.54-2.52,1.07-5.56,1.61-9.11,1.61s-6.59-.54-9.19-1.62c-2.61-1.08-4.64-2.68-6.09-4.8-1.08-1.58-1.78-3.44-2.1-5.57-.18-1.22.75-2.32,1.98-2.32h5.06c.89,0,1.7.58,1.92,1.44s.56,1.58,1.05,2.21c.75.97,1.75,1.7,3,2.19s2.68.73,4.27.73,2.92-.23,4.08-.68,2.06-1.09,2.7-1.9c.64-.81.96-1.74.96-2.79,0-.98-.29-1.8-.86-2.47-.58-.67-1.41-1.24-2.51-1.7-1.1-.47-2.45-.89-4.04-1.28l-4.75-1.19c-3.68-.9-6.58-2.29-8.71-4.2-2.13-1.9-3.19-4.47-3.17-7.69-.01-2.64.69-4.95,2.12-6.92,1.43-1.97,3.39-3.52,5.89-4.62,2.5-1.11,5.34-1.66,8.52-1.66s6.07.55,8.49,1.66c2.42,1.11,4.31,2.65,5.66,4.62.92,1.35,1.54,2.85,1.85,4.49.23,1.23-.72,2.37-1.97,2.37h-5.02Z"/>
</svg>
